<?xml version="1.0" standalone="no"?>
<!DOCTYPE svg PUBLIC "-//W3C//DTD SVG 20010904//EN"
 "http://www.w3.org/TR/2001/REC-SVG-20010904/DTD/svg10.dtd">
<svg version="1.0" xmlns="http://www.w3.org/2000/svg"
 width="1200.000000pt" height="630.000000pt" viewBox="0 0 1200.000000 630.000000"
 preserveAspectRatio="xMidYMid meet">
<metadata>
Created by potrace 1.16, written by Peter Selinger 2001-2019
</metadata>
<g transform="translate(0.000000,630.000000) scale(0.100000,-0.100000)"
fill="#000000" stroke="none">
<path d="M6525 6188 c-198 -22 -428 -96 -581 -185 -345 -202 -566 -536 -645
-973 -21 -115 -23 -162 -27 -572 l-4 -447 -416 -3 c-399 -3 -418 -4 -444 -23
-55 -42 -53 -20 -56 -585 -2 -451 -1 -531 13 -565 27 -72 12 -69 480 -75 l420
-5 5 -1285 c5 -1254 5 -1286 25 -1314 38 -56 37 -56 620 -56 583 0 582 0 620
56 20 28 20 58 23 1317 l2 1287 483 0 c521 1 511 0 548 56 18 28 19 52 19 562
0 581 1 569 -57 608 -26 18 -56 19 -511 22 l-483 3 3 382 c3 373 4 383 26 431
36 79 67 113 135 145 87 42 176 51 533 51 297 0 301 0 335 23 59 40 60 48 57
586 -3 450 -4 488 -21 513 -40 58 -41 58 -554 57 -257 -1 -504 -6 -548 -11z"/>
</g>
</svg>
