<?xml version="1.0" standalone="no"?>
<!DOCTYPE svg PUBLIC "-//W3C//DTD SVG 20010904//EN"
 "http://www.w3.org/TR/2001/REC-SVG-20010904/DTD/svg10.dtd">
<svg version="1.0" xmlns="http://www.w3.org/2000/svg"
 width="1600.000000pt" height="1600.000000pt" viewBox="0 0 1600.000000 1600.000000"
 preserveAspectRatio="xMidYMid meet">
<metadata>
Created by potrace 1.16, written by Peter Selinger 2001-2019
</metadata>
<g transform="translate(0.000000,1600.000000) scale(0.100000,-0.100000)"
fill="#000000" stroke="none">
<path d="M7040 14989 c-1296 -96 -2494 -556 -3525 -1353 -679 -526 -1269
-1211 -1693 -1968 -473 -844 -745 -1761 -813 -2742 -17 -251 -7 -850 19 -1086
51 -461 136 -874 265 -1285 526 -1674 1728 -3084 3303 -3873 607 -304 1281
-517 1949 -616 366 -54 478 -61 955 -61 477 0 592 8 955 61 1989 294 3739
1506 4727 3274 384 687 638 1441 754 2233 20 139 134 1331 134 1404 l0 23
-3035 0 -3035 0 0 -1000 0 -1000 1831 0 1830 0 -6 -22 c-47 -154 -248 -577
-377 -793 -783 -1310 -2110 -2114 -3587 -2174 -1447 -59 -2804 557 -3707 1683
-495 617 -824 1381 -933 2167 -36 259 -44 411 -38 731 7 423 50 734 156 1119
268 970 868 1836 1685 2428 617 447 1301 717 2086 822 200 27 711 38 923 19
851 -72 1626 -364 2315 -872 111 -82 268 -212 338 -280 l51 -49 70 73 c38 40
328 350 643 688 315 338 594 637 619 663 l46 49 -65 60 c-36 33 -121 107 -190
165 -1065 893 -2349 1412 -3745 1513 -160 11 -748 11 -905 -1z"/>
</g>
</svg>
