<?xml version="1.0" standalone="no"?>
<!DOCTYPE svg PUBLIC "-//W3C//DTD SVG 20010904//EN"
 "http://www.w3.org/TR/2001/REC-SVG-20010904/DTD/svg10.dtd">
<svg version="1.0" xmlns="http://www.w3.org/2000/svg"
 width="225.000000pt" height="225.000000pt" viewBox="0 0 225.000000 225.000000"
 preserveAspectRatio="xMidYMid meet">
<metadata>
Created by potrace 1.16, written by Peter Selinger 2001-2019
</metadata>
<g transform="translate(0.000000,225.000000) scale(0.100000,-0.100000)"
fill="#000000" stroke="none">
<path d="M1491 1920 c-71 -11 -135 -35 -199 -78 -67 -44 -112 -99 -154 -188
-30 -63 -33 -79 -36 -181 l-4 -113 -42 6 c-343 47 -572 154 -798 373 l-100 97
-14 -27 c-22 -43 -44 -138 -44 -191 0 -121 45 -230 135 -326 l60 -65 -45 8
c-25 4 -67 16 -95 26 -27 11 -53 19 -56 19 -10 0 10 -107 31 -164 44 -117 136
-208 264 -260 69 -28 57 -36 -55 -36 -43 0 -79 -2 -79 -5 0 -3 12 -29 26 -57
32 -63 114 -151 172 -185 51 -30 152 -63 195 -63 l32 -1 -30 -24 c-51 -42
-197 -113 -291 -140 -67 -20 -120 -28 -217 -32 l-128 -6 63 -35 c100 -55 244
-109 358 -133 147 -31 402 -32 541 -1 264 58 457 161 640 342 236 235 389 589
389 902 l0 87 61 53 c58 49 162 168 155 175 -2 2 -33 -6 -69 -17 -36 -11 -86
-24 -112 -29 l-46 -9 59 62 c54 56 120 161 109 173 -3 2 -22 -4 -44 -15 -63
-32 -182 -72 -215 -72 -20 0 -42 11 -65 30 -49 43 -125 79 -202 96 -72 15 -72
15 -150 4z"/>
</g>
</svg>
